<svg width="774" height="293" viewBox="0 0 774 293" fill="none" xmlns="http://www.w3.org/2000/svg">
<mask id="mask0_40_823" style="mask-type:alpha" maskUnits="userSpaceOnUse" x="17" y="0" width="707" height="274">
<path d="M17.3934 220.931V177.028L127.205 3.60488H164.965V64.3739H142.617L73.391 174.196V176.256H229.439V220.931H17.3934ZM143.645 267.281V207.542L144.672 188.101V3.60488H196.817V267.281H143.645Z" fill="#2862FF"/>
<path d="M369.626 273.074C347.535 272.988 328.527 267.538 312.601 256.723C296.761 245.908 284.559 230.244 275.997 209.73C267.52 189.216 263.325 164.54 263.41 135.7C263.41 106.947 267.649 82.4415 276.125 62.1852C284.688 41.9288 296.889 26.522 312.729 15.9647C328.655 5.32152 347.621 -6.10352e-05 369.626 -6.10352e-05C391.631 -6.10352e-05 410.554 5.32152 426.394 15.9647C442.32 26.6078 454.564 42.0576 463.127 62.3139C471.689 82.4844 475.927 106.947 475.842 135.7C475.842 164.626 471.56 189.345 462.998 209.859C454.521 230.373 442.363 246.037 426.523 256.852C410.682 267.667 391.717 273.074 369.626 273.074ZM369.626 226.854C384.696 226.854 396.726 219.258 405.716 204.065C414.707 188.873 419.159 166.085 419.073 135.7C419.073 115.701 417.018 99.05 412.909 85.746C408.884 72.4421 403.148 62.4427 395.698 55.7478C388.335 49.0529 379.644 45.7055 369.626 45.7055C354.642 45.7055 342.655 53.2157 333.664 68.2363C324.674 83.2569 320.136 105.745 320.05 135.7C320.05 155.957 322.062 172.865 326.087 186.427C330.196 199.903 335.976 210.031 343.425 216.811C350.874 223.506 359.608 226.854 369.626 226.854Z" fill="#2862FF"/>
<path d="M511.514 220.931V177.028L621.326 3.60488H659.086V64.3739H636.738L567.512 174.196V176.256H723.56V220.931H511.514ZM637.766 267.281V207.542L638.793 188.101V3.60488H690.938V267.281H637.766Z" fill="#2862FF"/>
</mask>
<g mask="url(#mask0_40_823)">
<rect x="17.3933" y="216.72" width="706.167" height="56.3542" fill="black"/>
</g>
<mask id="mask1_40_823" style="mask-type:alpha" maskUnits="userSpaceOnUse" x="15" y="0" width="707" height="274">
<path d="M15.6543 220.931V177.028L125.466 3.60488H163.226V64.3739H140.878L71.6519 174.196V176.256H227.7V220.931H15.6543ZM141.906 267.281V207.542L142.933 188.101V3.60488H195.078V267.281H141.906Z" fill="#2862FF"/>
<path d="M367.887 273.074C345.796 272.988 326.788 267.538 310.862 256.723C295.022 245.908 282.82 230.244 274.258 209.73C265.781 189.216 261.586 164.54 261.671 135.7C261.671 106.947 265.91 82.4415 274.386 62.1852C282.949 41.9288 295.15 26.522 310.99 15.9647C326.916 5.32152 345.882 -6.10352e-05 367.887 -6.10352e-05C389.892 -6.10352e-05 408.815 5.32152 424.655 15.9647C440.581 26.6078 452.825 42.0576 461.387 62.3139C469.95 82.4844 474.188 106.947 474.103 135.7C474.103 164.626 469.821 189.345 461.259 209.859C452.782 230.373 440.624 246.037 424.784 256.852C408.943 267.667 389.978 273.074 367.887 273.074ZM367.887 226.854C382.957 226.854 394.987 219.258 403.977 204.065C412.968 188.873 417.42 166.085 417.334 135.7C417.334 115.701 415.279 99.05 411.169 85.746C407.145 72.4421 401.408 62.4427 393.959 55.7478C386.596 49.0529 377.905 45.7055 367.887 45.7055C352.903 45.7055 340.916 53.2158 331.925 68.2363C322.935 83.2569 318.397 105.745 318.311 135.7C318.311 155.957 320.323 172.865 324.347 186.427C328.457 199.903 334.237 210.031 341.686 216.811C349.135 223.506 357.869 226.854 367.887 226.854Z" fill="#2862FF"/>
<path d="M509.775 220.931V177.028L619.587 3.60488H657.347V64.3739H634.999L565.773 174.196V176.256H721.821V220.931H509.775ZM636.027 267.281V207.542L637.054 188.101V3.60488H689.199V267.281H636.027Z" fill="#2862FF"/>
</mask>
<g mask="url(#mask1_40_823)">
<rect x="15.6544" y="162.453" width="706.167" height="54.6149" fill="black"/>
</g>
<mask id="mask2_40_823" style="mask-type:alpha" maskUnits="userSpaceOnUse" x="50" y="0" width="707" height="274">
<path d="M50.4407 220.931V177.028L160.253 3.60488H198.012V64.3739H175.665L106.438 174.196V176.256H262.487V220.931H50.4407ZM176.692 267.281V207.542L177.72 188.101V3.60488H229.864V267.281H176.692Z" fill="#2862FF"/>
<path d="M402.673 273.074C380.582 272.988 361.574 267.538 345.648 256.723C329.808 245.908 317.607 230.244 309.044 209.73C300.568 189.216 296.372 164.54 296.458 135.7C296.458 106.947 300.696 82.4415 309.173 62.1852C317.735 41.9288 329.936 26.522 345.777 15.9647C361.703 5.32152 380.668 -6.10352e-05 402.673 -6.10352e-05C424.678 -6.10352e-05 443.601 5.32152 459.441 15.9647C475.367 26.6078 487.612 42.0576 496.174 62.3139C504.736 82.4844 508.975 106.947 508.889 135.7C508.889 164.626 504.608 189.345 496.045 209.859C487.569 230.373 475.41 246.037 459.57 256.852C443.73 267.667 424.764 273.074 402.673 273.074ZM402.673 226.854C417.743 226.854 429.773 219.258 438.764 204.065C447.754 188.873 452.206 166.085 452.121 135.7C452.121 115.701 450.066 99.05 445.956 85.746C441.932 72.4421 436.195 62.4427 428.746 55.7478C421.382 49.0529 412.691 45.7055 402.673 45.7055C387.689 45.7055 375.702 53.2157 366.712 68.2363C357.721 83.2569 353.183 105.745 353.097 135.7C353.097 155.957 355.11 172.865 359.134 186.427C363.244 199.903 369.023 210.031 376.473 216.811C383.922 223.506 392.655 226.854 402.673 226.854Z" fill="#2862FF"/>
<path d="M544.562 220.931V177.028L654.373 3.60488H692.133V64.3739H669.786L600.559 174.196V176.256H756.608V220.931H544.562ZM670.813 267.281V207.542L671.841 188.101V3.60488H723.985V267.281H670.813Z" fill="#2862FF"/>
</mask>
<g mask="url(#mask2_40_823)">
<rect x="50.4408" y="107.838" width="706.167" height="54.6149" fill="black"/>
</g>
<mask id="mask3_40_823" style="mask-type:alpha" maskUnits="userSpaceOnUse" x="0" y="19" width="707" height="274">
<path d="M0 240.063V196.16L109.812 22.737H147.572V83.506H125.224L55.9976 193.328V195.388H212.046V240.063H0ZM126.251 286.413V226.674L127.279 207.233V22.737H179.423V286.413H126.251Z" fill="#2862FF"/>
<path d="M352.233 292.206C330.142 292.12 311.133 286.67 295.207 275.855C279.367 265.041 267.166 249.376 258.604 228.862C250.127 208.349 245.931 183.672 246.017 154.832C246.017 126.079 250.255 101.574 258.732 81.3172C267.294 61.0609 279.496 45.6541 295.336 35.0968C311.262 24.4536 330.227 19.132 352.233 19.132C374.238 19.132 393.16 24.4536 409.001 35.0968C424.927 45.7399 437.171 61.1897 445.733 81.446C454.295 101.617 458.534 126.079 458.448 154.832C458.448 183.758 454.167 208.477 445.605 228.991C437.128 249.505 424.97 265.169 409.129 275.984C393.289 286.799 374.323 292.206 352.233 292.206ZM352.233 245.986C367.302 245.986 379.332 238.39 388.323 223.197C397.313 208.005 401.766 185.217 401.68 154.832C401.68 134.833 399.625 118.182 395.515 104.878C391.491 91.5742 385.754 81.5747 378.305 74.8799C370.941 68.185 362.25 64.8375 352.233 64.8375C337.249 64.8375 325.261 72.3478 316.271 87.3684C307.28 102.389 302.742 124.877 302.657 154.832C302.657 175.089 304.669 191.998 308.693 205.559C312.803 219.035 318.583 229.163 326.032 235.943C333.481 242.638 342.215 245.986 352.233 245.986Z" fill="#2862FF"/>
<path d="M494.121 240.063V196.16L603.933 22.737H641.693V83.506H619.345L550.119 193.328V195.388H706.167V240.063H494.121ZM620.372 286.413V226.674L621.4 207.233V22.737H673.544V286.413H620.372Z" fill="#2862FF"/>
</mask>
<g mask="url(#mask3_40_823)">
<rect y="72.3558" width="706.167" height="54.6149" fill="black"/>
</g>
<mask id="mask4_40_823" style="mask-type:alpha" maskUnits="userSpaceOnUse" x="20" y="0" width="708" height="274">
<path d="M20.8714 220.931V177.028L130.683 3.60488H168.443V64.3739H146.095L76.869 174.196V176.256H232.917V220.931H20.8714ZM147.123 267.281V207.542L148.15 188.101V3.60488H200.295V267.281H147.123Z" fill="#2862FF"/>
<path d="M373.104 273.074C351.013 272.988 332.005 267.538 316.079 256.723C300.239 245.908 288.037 230.244 279.475 209.73C270.998 189.216 266.803 164.54 266.888 135.7C266.888 106.947 271.127 82.4415 279.603 62.1852C288.166 41.9288 300.367 26.522 316.207 15.9647C332.133 5.32152 351.099 -6.10352e-05 373.104 -6.10352e-05C395.109 -6.10352e-05 414.032 5.32152 429.872 15.9647C445.798 26.6078 458.042 42.0576 466.605 62.3139C475.167 82.4844 479.405 106.947 479.32 135.7C479.32 164.626 475.038 189.345 466.476 209.859C457.999 230.373 445.841 246.037 430.001 256.852C414.16 267.667 395.195 273.074 373.104 273.074ZM373.104 226.854C388.174 226.854 400.204 219.258 409.194 204.065C418.185 188.873 422.637 166.085 422.551 135.7C422.551 115.701 420.496 99.05 416.387 85.746C412.362 72.4421 406.626 62.4427 399.176 55.7478C391.813 49.0529 383.122 45.7055 373.104 45.7055C358.12 45.7055 346.133 53.2157 337.142 68.2363C328.152 83.2569 323.614 105.745 323.528 135.7C323.528 155.957 325.54 172.865 329.565 186.427C333.674 199.903 339.454 210.031 346.903 216.811C354.353 223.506 363.086 226.854 373.104 226.854Z" fill="#2862FF"/>
<path d="M514.992 220.931V177.028L624.804 3.60488H662.564V64.3739H640.216L570.99 174.196V176.256H727.038V220.931H514.992ZM641.244 267.281V207.542L642.271 188.101V3.60488H694.416V267.281H641.244Z" fill="#2862FF"/>
</mask>
<g mask="url(#mask4_40_823)">
<rect x="20.8714" y="-6.10352e-05" width="706.167" height="54.6149" fill="black"/>
</g>
<mask id="mask5_40_823" style="mask-type:alpha" maskUnits="userSpaceOnUse" x="62" y="0" width="707" height="274">
<path d="M62.6159 220.931V177.028L172.428 3.60488H210.188V64.3739H187.84L118.614 174.196V176.256H274.662V220.931H62.6159ZM188.867 267.281V207.542L189.895 188.101V3.60488H242.039V267.281H188.867Z" fill="#2862FF"/>
<path d="M414.848 273.074C392.758 272.988 373.749 267.538 357.823 256.723C341.983 245.908 329.782 230.244 321.219 209.73C312.743 189.216 308.547 164.54 308.633 135.7C308.633 106.947 312.871 82.4415 321.348 62.1852C329.91 41.9288 342.112 26.522 357.952 15.9647C373.878 5.32152 392.843 -6.10352e-05 414.848 -6.10352e-05C436.854 -6.10352e-05 455.776 5.32152 471.617 15.9647C487.543 26.6078 499.787 42.0576 508.349 62.3139C516.911 82.4844 521.15 106.947 521.064 135.7C521.064 164.626 516.783 189.345 508.221 209.859C499.744 230.373 487.585 246.037 471.745 256.852C455.905 267.667 436.939 273.074 414.848 273.074ZM414.848 226.854C429.918 226.854 441.948 219.258 450.939 204.065C459.929 188.873 464.382 166.085 464.296 135.7C464.296 115.701 462.241 99.05 458.131 85.746C454.107 72.4421 448.37 62.4427 440.921 55.7478C433.557 49.0529 424.866 45.7055 414.848 45.7055C399.864 45.7055 387.877 53.2157 378.887 68.2363C369.896 83.2569 365.358 105.745 365.273 135.7C365.273 155.957 367.285 172.865 371.309 186.427C375.419 199.903 381.199 210.031 388.648 216.811C396.097 223.506 404.831 226.854 414.848 226.854Z" fill="#2862FF"/>
<path d="M556.737 220.931V177.028L666.549 3.60488H704.308V64.3739H681.961L612.734 174.196V176.256H768.783V220.931H556.737ZM682.988 267.281V207.542L684.016 188.101V3.60488H736.16V267.281H682.988Z" fill="#2862FF"/>
</mask>
<g mask="url(#mask5_40_823)">
<rect x="62.616" y="216.72" width="706.167" height="56.3542" fill="#0D0601"/>
</g>
<mask id="mask6_40_823" style="mask-type:alpha" maskUnits="userSpaceOnUse" x="64" y="0" width="707" height="274">
<path d="M64.3548 220.931V177.028L174.167 3.60488H211.926V64.3739H189.579L120.352 174.196V176.256H276.401V220.931H64.3548ZM190.606 267.281V207.542L191.634 188.101V3.60488H243.778V267.281H190.606Z" fill="#2862FF"/>
<path d="M416.587 273.074C394.497 272.988 375.488 267.538 359.562 256.723C343.722 245.908 331.521 230.244 322.958 209.73C314.482 189.216 310.286 164.54 310.372 135.7C310.372 106.947 314.61 82.4415 323.087 62.1852C331.649 41.9288 343.85 26.522 359.691 15.9647C375.617 5.32152 394.582 -6.10352e-05 416.587 -6.10352e-05C438.593 -6.10352e-05 457.515 5.32152 473.356 15.9647C489.281 26.6078 501.526 42.0576 510.088 62.3139C518.65 82.4844 522.889 106.947 522.803 135.7C522.803 164.626 518.522 189.345 509.96 209.859C501.483 230.373 489.324 246.037 473.484 256.852C457.644 267.667 438.678 273.074 416.587 273.074ZM416.587 226.854C431.657 226.854 443.687 219.258 452.678 204.065C461.668 188.873 466.12 166.085 466.035 135.7C466.035 115.701 463.98 99.05 459.87 85.746C455.846 72.4421 450.109 62.4427 442.66 55.7478C435.296 49.0529 426.605 45.7055 416.587 45.7055C401.603 45.7055 389.616 53.2158 380.626 68.2363C371.635 83.2569 367.097 105.745 367.012 135.7C367.012 155.957 369.024 172.865 373.048 186.427C377.158 199.903 382.937 210.031 390.387 216.811C397.836 223.506 406.569 226.854 416.587 226.854Z" fill="#2862FF"/>
<path d="M558.476 220.931V177.028L668.288 3.60488H706.047V64.3739H683.7L614.473 174.196V176.256H770.522V220.931H558.476ZM684.727 267.281V207.542L685.755 188.101V3.60488H737.899V267.281H684.727Z" fill="#2862FF"/>
</mask>
<g mask="url(#mask6_40_823)">
<rect x="64.3545" y="162.453" width="706.167" height="54.6149" fill="#0D0601"/>
</g>
<mask id="mask7_40_823" style="mask-type:alpha" maskUnits="userSpaceOnUse" x="64" y="0" width="707" height="274">
<path d="M64.3548 220.931V177.028L174.167 3.60488H211.926V64.3739H189.579L120.352 174.196V176.256H276.401V220.931H64.3548ZM190.606 267.281V207.542L191.634 188.101V3.60488H243.778V267.281H190.606Z" fill="#2862FF"/>
<path d="M416.587 273.074C394.497 272.988 375.488 267.538 359.562 256.723C343.722 245.908 331.521 230.244 322.958 209.73C314.482 189.216 310.286 164.54 310.372 135.7C310.372 106.947 314.61 82.4415 323.087 62.1852C331.649 41.9288 343.85 26.522 359.691 15.9647C375.617 5.32152 394.582 -6.10352e-05 416.587 -6.10352e-05C438.593 -6.10352e-05 457.515 5.32152 473.356 15.9647C489.281 26.6078 501.526 42.0576 510.088 62.3139C518.65 82.4844 522.889 106.947 522.803 135.7C522.803 164.626 518.522 189.345 509.959 209.859C501.483 230.373 489.324 246.037 473.484 256.852C457.644 267.667 438.678 273.074 416.587 273.074ZM416.587 226.854C431.657 226.854 443.687 219.258 452.678 204.065C461.668 188.873 466.12 166.085 466.035 135.7C466.035 115.701 463.98 99.05 459.87 85.746C455.846 72.4421 450.109 62.4427 442.66 55.7478C435.296 49.0529 426.605 45.7055 416.587 45.7055C401.603 45.7055 389.616 53.2157 380.626 68.2363C371.635 83.2569 367.097 105.745 367.012 135.7C367.012 155.957 369.024 172.865 373.048 186.427C377.158 199.903 382.937 210.031 390.387 216.811C397.836 223.506 406.569 226.854 416.587 226.854Z" fill="#2862FF"/>
<path d="M558.476 220.931V177.028L668.288 3.60488H706.047V64.3739H683.7L614.473 174.196V176.256H770.522V220.931H558.476ZM684.727 267.281V207.542L685.755 188.101V3.60488H737.899V267.281H684.727Z" fill="#2862FF"/>
</mask>
<g mask="url(#mask7_40_823)">
<rect x="64.3545" y="107.838" width="706.167" height="54.6149" fill="#0D0601"/>
</g>
<mask id="mask8_40_823" style="mask-type:alpha" maskUnits="userSpaceOnUse" x="20" y="0" width="708" height="274">
<path d="M20.8714 220.931V177.028L130.683 3.60494H168.443V64.3739H146.095L76.869 174.196V176.256H232.917V220.931H20.8714ZM147.123 267.281V207.542L148.15 188.101V3.60494H200.295V267.281H147.123Z" fill="#2862FF"/>
<path d="M373.104 273.074C351.013 272.988 332.005 267.538 316.079 256.723C300.239 245.909 288.037 230.244 279.475 209.73C270.998 189.216 266.803 164.54 266.888 135.7C266.888 106.947 271.127 82.4416 279.603 62.1852C288.166 41.9289 300.367 26.5221 316.207 15.9648C332.133 5.32158 351.099 0 373.104 0C395.109 0 414.032 5.32158 429.872 15.9648C445.798 26.6079 458.042 42.0576 466.605 62.314C475.167 82.4845 479.405 106.947 479.32 135.7C479.32 164.626 475.038 189.345 466.476 209.859C457.999 230.373 445.841 246.037 430.001 256.852C414.16 267.667 395.195 273.074 373.104 273.074ZM373.104 226.854C388.174 226.854 400.204 219.258 409.194 204.065C418.185 188.873 422.637 166.085 422.551 135.7C422.551 115.701 420.496 99.05 416.387 85.7461C412.362 72.4421 406.626 62.4427 399.176 55.7478C391.813 49.053 383.122 45.7055 373.104 45.7055C358.12 45.7055 346.133 53.2158 337.142 68.2364C328.152 83.257 323.614 105.745 323.528 135.7C323.528 155.957 325.54 172.866 329.565 186.427C333.674 199.903 339.454 210.031 346.903 216.811C354.353 223.506 363.086 226.854 373.104 226.854Z" fill="#2862FF"/>
<path d="M514.992 220.931V177.028L624.804 3.60494H662.564V64.3739H640.216L570.99 174.196V176.256H727.038V220.931H514.992ZM641.244 267.281V207.542L642.271 188.101V3.60494H694.416V267.281H641.244Z" fill="#2862FF"/>
</mask>
<g mask="url(#mask8_40_823)">
<rect x="20.8716" y="53.2236" width="706.167" height="54.6149" fill="#0D0601"/>
</g>
<mask id="mask9_40_823" style="mask-type:alpha" maskUnits="userSpaceOnUse" x="48" y="0" width="707" height="274">
<path d="M48.7007 220.931V177.028L158.513 3.60488H196.272V64.3739H173.925L104.698 174.196V176.256H260.747V220.931H48.7007ZM174.952 267.281V207.542L175.98 188.101V3.60488H228.124V267.281H174.952Z" fill="#2862FF"/>
<path d="M400.933 273.074C378.842 272.988 359.834 267.538 343.908 256.723C328.068 245.908 315.867 230.244 307.304 209.73C298.828 189.216 294.632 164.54 294.718 135.7C294.718 106.947 298.956 82.4415 307.433 62.1852C315.995 41.9288 328.196 26.522 344.037 15.9647C359.963 5.32152 378.928 -6.10352e-05 400.933 -6.10352e-05C422.938 -6.10352e-05 441.861 5.32152 457.701 15.9647C473.627 26.6078 485.872 42.0576 494.434 62.3139C502.996 82.4844 507.235 106.947 507.149 135.7C507.149 164.626 502.868 189.345 494.305 209.859C485.829 230.373 473.67 246.037 457.83 256.852C441.99 267.667 423.024 273.074 400.933 273.074ZM400.933 226.854C416.003 226.854 428.033 219.258 437.024 204.065C446.014 188.873 450.466 166.085 450.381 135.7C450.381 115.701 448.326 99.05 444.216 85.746C440.192 72.4421 434.455 62.4427 427.006 55.7478C419.642 49.0529 410.951 45.7055 400.933 45.7055C385.949 45.7055 373.962 53.2157 364.972 68.2363C355.981 83.2569 351.443 105.745 351.357 135.7C351.357 155.957 353.37 172.865 357.394 186.427C361.504 199.903 367.283 210.031 374.733 216.811C382.182 223.506 390.915 226.854 400.933 226.854Z" fill="#2862FF"/>
<path d="M542.822 220.931V177.028L652.633 3.60488H690.393V64.3739H668.046L598.819 174.196V176.256H754.868V220.931H542.822ZM669.073 267.281V207.542L670.101 188.101V3.60488H722.245V267.281H669.073Z" fill="#2862FF"/>
</mask>
<g mask="url(#mask9_40_823)">
<rect x="48.7007" y="-6.10352e-05" width="706.167" height="54.6149" fill="#0D0601"/>
</g>
<mask id="mask10_40_823" style="mask-type:alpha" maskUnits="userSpaceOnUse" x="40" y="17" width="707" height="274">
<path d="M40.0044 238.325V194.422L149.816 20.9983H187.576V81.7673H165.228L96.002 191.589V193.649H252.05V238.325H40.0044ZM166.256 284.674V224.935L167.283 205.494V20.9983H219.428V284.674H166.256Z" fill="#2862FF"/>
<path d="M392.237 290.468C370.146 290.382 351.138 284.932 335.212 274.117C319.372 263.302 307.17 247.638 298.608 227.124C290.131 206.61 285.936 181.933 286.021 153.094C286.021 124.34 290.26 99.835 298.736 79.5786C307.299 59.3223 319.5 43.9155 335.34 33.3582C351.266 22.715 370.232 17.3934 392.237 17.3934C414.242 17.3934 433.165 22.715 449.005 33.3582C464.931 44.0013 477.175 59.451 485.738 79.7074C494.3 99.8779 498.538 124.34 498.453 153.094C498.453 182.019 494.171 206.739 485.609 227.252C477.132 247.766 464.974 263.431 449.134 274.245C433.293 285.06 414.328 290.468 392.237 290.468ZM392.237 244.247C407.307 244.247 419.337 236.651 428.327 221.459C437.318 206.267 441.77 183.478 441.684 153.094C441.684 133.095 439.629 116.443 435.52 103.139C431.495 89.8355 425.758 79.8361 418.309 73.1412C410.946 66.4464 402.255 63.0989 392.237 63.0989C377.253 63.0989 365.266 70.6092 356.275 85.6298C347.285 100.65 342.747 123.138 342.661 153.094C342.661 173.35 344.673 190.259 348.698 203.82C352.807 217.296 358.587 227.424 366.036 234.205C373.485 240.9 382.219 244.247 392.237 244.247Z" fill="#2862FF"/>
<path d="M534.125 238.325V194.422L643.937 20.9983H681.697V81.7673H659.349L590.123 191.589V193.649H746.171V238.325H534.125ZM660.377 284.674V224.935L661.404 205.494V20.9983H713.549V284.674H660.377Z" fill="#2862FF"/>
</mask>
<g mask="url(#mask10_40_823)">
<rect x="40.0046" y="234.113" width="706.167" height="56.3542" fill="#FF0207"/>
</g>
<mask id="mask11_40_823" style="mask-type:alpha" maskUnits="userSpaceOnUse" x="40" y="0" width="707" height="274">
<path d="M40.0044 220.931V177.028L149.816 3.60488H187.576V64.3739H165.228L96.002 174.196V176.256H252.05V220.931H40.0044ZM166.256 267.281V207.542L167.283 188.101V3.60488H219.428V267.281H166.256Z" fill="#2862FF"/>
<path d="M392.237 273.074C370.146 272.988 351.138 267.538 335.212 256.723C319.372 245.908 307.17 230.244 298.608 209.73C290.131 189.216 285.936 164.54 286.021 135.7C286.021 106.947 290.26 82.4415 298.736 62.1852C307.299 41.9288 319.5 26.522 335.34 15.9647C351.266 5.32152 370.232 -6.10352e-05 392.237 -6.10352e-05C414.242 -6.10352e-05 433.165 5.32152 449.005 15.9647C464.931 26.6078 477.175 42.0576 485.738 62.3139C494.3 82.4844 498.538 106.947 498.453 135.7C498.453 164.626 494.171 189.345 485.609 209.859C477.132 230.373 464.974 246.037 449.134 256.852C433.293 267.667 414.328 273.074 392.237 273.074ZM392.237 226.854C407.307 226.854 419.337 219.258 428.327 204.065C437.318 188.873 441.77 166.085 441.684 135.7C441.684 115.701 439.63 99.05 435.52 85.746C431.495 72.4421 425.759 62.4427 418.309 55.7478C410.946 49.0529 402.255 45.7055 392.237 45.7055C377.253 45.7055 365.266 53.2158 356.275 68.2363C347.285 83.2569 342.747 105.745 342.661 135.7C342.661 155.957 344.673 172.865 348.698 186.427C352.808 199.903 358.587 210.031 366.036 216.811C373.486 223.506 382.219 226.854 392.237 226.854Z" fill="#2862FF"/>
<path d="M534.125 220.931V177.028L643.937 3.60488H681.697V64.3739H659.349L590.123 174.196V176.256H746.171V220.931H534.125ZM660.377 267.281V207.542L661.404 188.101V3.60488H713.549V267.281H660.377Z" fill="#2862FF"/>
</mask>
<g mask="url(#mask11_40_823)">
<rect x="40.0046" y="162.453" width="706.167" height="54.6149" fill="#FF0207"/>
</g>
<mask id="mask12_40_823" style="mask-type:alpha" maskUnits="userSpaceOnUse" x="67" y="0" width="707" height="274">
<path d="M67.8331 220.931V177.028L177.645 3.60488H215.405V64.3739H193.057L123.831 174.196V176.256H279.879V220.931H67.8331ZM194.085 267.281V207.542L195.112 188.101V3.60488H247.257V267.281H194.085Z" fill="#2862FF"/>
<path d="M420.066 273.074C397.975 272.988 378.967 267.538 363.041 256.723C347.2 245.908 334.999 230.244 326.437 209.73C317.96 189.216 313.764 164.54 313.85 135.7C313.85 106.947 318.088 82.4415 326.565 62.1852C335.127 41.9288 347.329 26.522 363.169 15.9647C379.095 5.32152 398.061 -6.10352e-05 420.066 -6.10352e-05C442.071 -6.10352e-05 460.994 5.32152 476.834 15.9647C492.76 26.6078 505.004 42.0576 513.566 62.3139C522.129 82.4844 526.367 106.947 526.281 135.7C526.281 164.626 522 189.345 513.438 209.859C504.961 230.373 492.803 246.037 476.962 256.852C461.122 267.667 442.156 273.074 420.066 273.074ZM420.066 226.854C435.135 226.854 447.165 219.258 456.156 204.065C465.146 188.873 469.599 166.085 469.513 135.7C469.513 115.701 467.458 99.05 463.348 85.746C459.324 72.4421 453.587 62.4427 446.138 55.7478C438.774 49.0529 430.084 45.7055 420.066 45.7055C405.082 45.7055 393.094 53.2157 384.104 68.2363C375.113 83.2569 370.575 105.745 370.49 135.7C370.49 155.957 372.502 172.865 376.526 186.427C380.636 199.903 386.416 210.031 393.865 216.811C401.314 223.506 410.048 226.854 420.066 226.854Z" fill="#2862FF"/>
<path d="M561.954 220.931V177.028L671.766 3.60488H709.526V64.3739H687.178L617.952 174.196V176.256H774V220.931H561.954ZM688.206 267.281V207.542L689.233 188.101V3.60488H741.378V267.281H688.206Z" fill="#2862FF"/>
</mask>
<g mask="url(#mask12_40_823)">
<rect x="67.833" y="107.838" width="706.167" height="54.6149" fill="#FF0207"/>
</g>
<mask id="mask13_40_823" style="mask-type:alpha" maskUnits="userSpaceOnUse" x="10" y="0" width="707" height="274">
<path d="M10.4357 220.931V177.028L120.248 3.60494H158.007V64.3739H135.66L66.4333 174.196V176.256H222.482V220.931H10.4357ZM136.687 267.281V207.542L137.715 188.101V3.60494H189.859V267.281H136.687Z" fill="#2862FF"/>
<path d="M362.668 273.074C340.577 272.988 321.569 267.538 305.643 256.723C289.803 245.909 277.602 230.244 269.039 209.73C260.563 189.216 256.367 164.54 256.453 135.7C256.453 106.947 260.691 82.4416 269.168 62.1852C277.73 41.9289 289.931 26.5221 305.772 15.9648C321.698 5.32158 340.663 0 362.668 0C384.673 0 403.596 5.32158 419.436 15.9648C435.362 26.6079 447.607 42.0576 456.169 62.314C464.731 82.4845 468.97 106.947 468.884 135.7C468.884 164.626 464.603 189.345 456.04 209.859C447.564 230.373 435.405 246.037 419.565 256.852C403.725 267.667 384.759 273.074 362.668 273.074ZM362.668 226.854C377.738 226.854 389.768 219.258 398.759 204.065C407.749 188.873 412.201 166.085 412.116 135.7C412.116 115.701 410.061 99.05 405.951 85.7461C401.927 72.4421 396.19 62.4427 388.741 55.7478C381.377 49.053 372.686 45.7055 362.668 45.7055C347.684 45.7055 335.697 53.2158 326.707 68.2364C317.716 83.257 313.178 105.745 313.092 135.7C313.092 155.957 315.105 172.866 319.129 186.427C323.239 199.903 329.018 210.031 336.468 216.811C343.917 223.506 352.65 226.854 362.668 226.854Z" fill="#2862FF"/>
<path d="M504.557 220.931V177.028L614.368 3.60494H652.128V64.3739H629.781L560.554 174.196V176.256H716.603V220.931H504.557ZM630.808 267.281V207.542L631.836 188.101V3.60494H683.98V267.281H630.808Z" fill="#2862FF"/>
</mask>
<g mask="url(#mask13_40_823)">
<rect x="10.4357" y="53.2236" width="706.167" height="54.6149" fill="#FF0207"/>
</g>
<mask id="mask14_40_823" style="mask-type:alpha" maskUnits="userSpaceOnUse" x="57" y="0" width="707" height="274">
<path d="M57.3974 220.931V177.028L167.209 3.60488H204.969V64.3739H182.621L113.395 174.196V176.256H269.443V220.931H57.3974ZM183.649 267.281V207.542L184.676 188.101V3.60488H236.821V267.281H183.649Z" fill="#2862FF"/>
<path d="M409.63 273.074C387.539 272.988 368.531 267.538 352.605 256.723C336.765 245.908 324.563 230.244 316.001 209.73C307.524 189.216 303.329 164.54 303.414 135.7C303.414 106.947 307.653 82.4415 316.129 62.1852C324.692 41.9288 336.893 26.522 352.733 15.9647C368.659 5.32152 387.625 -6.10352e-05 409.63 -6.10352e-05C431.635 -6.10352e-05 450.558 5.32152 466.398 15.9647C482.324 26.6078 494.568 42.0576 503.131 62.3139C511.693 82.4844 515.931 106.947 515.846 135.7C515.846 164.626 511.564 189.345 503.002 209.859C494.525 230.373 482.367 246.037 466.527 256.852C450.686 267.667 431.721 273.074 409.63 273.074ZM409.63 226.854C424.7 226.854 436.73 219.258 445.72 204.065C454.711 188.873 459.163 166.085 459.077 135.7C459.077 115.701 457.022 99.05 452.912 85.746C448.888 72.4421 443.151 62.4427 435.702 55.7478C428.339 49.0529 419.648 45.7055 409.63 45.7055C394.646 45.7055 382.659 53.2157 373.668 68.2363C364.678 83.2569 360.14 105.745 360.054 135.7C360.054 155.957 362.066 172.865 366.091 186.427C370.2 199.903 375.98 210.031 383.429 216.811C390.878 223.506 399.612 226.854 409.63 226.854Z" fill="#2862FF"/>
<path d="M551.518 220.931V177.028L661.33 3.60488H699.09V64.3739H676.742L607.516 174.196V176.256H763.564V220.931H551.518ZM677.77 267.281V207.542L678.797 188.101V3.60488H730.942V267.281H677.77Z" fill="#2862FF"/>
</mask>
<g mask="url(#mask14_40_823)">
<rect x="57.3974" y="-6.10352e-05" width="706.167" height="54.6149" fill="#FF0207"/>
</g>
</svg>
