<svg width="243" height="105" viewBox="0 0 243 105" fill="none" xmlns="http://www.w3.org/2000/svg">
<path d="M-15 26.08C-15 16.6659 -15 11.9588 -13.081 8.4023C-11.5987 5.655 -9.345 3.40135 -6.5977 1.91899C-3.04119 0 1.66587 0 11.08 0H82.0825H164.469C167.801 0 169.466 0 171.063 0.328842C172.311 0.585767 173.523 0.99076 174.675 1.53522C176.149 2.23208 177.48 3.23319 180.143 5.23541L215.279 31.6554C224.982 38.9513 229.833 42.5993 231.447 47.1244C232.687 50.6009 232.687 54.3991 231.447 57.8756C229.833 62.4007 224.982 66.0487 215.279 73.3446L180.143 99.7646C177.48 101.767 176.149 102.768 174.675 103.465C173.523 104.009 172.311 104.414 171.063 104.671C169.466 105 167.801 105 164.469 105H11.08C1.66588 105 -3.04119 105 -6.5977 103.081C-9.345 101.599 -11.5987 99.345 -13.081 96.5977C-15 93.0412 -15 88.3341 -15 78.92V26.08Z" fill="#EB5757"/>
</svg>
