<svg width="48" height="48" viewBox="0 0 48 48" fill="none" xmlns="http://www.w3.org/2000/svg">
<g clip-path="url(#clip0_30_1431)">
<path fill-rule="evenodd" clip-rule="evenodd" d="M33.6 24.2273C33.6 23.5182 33.5364 22.8364 33.4182 22.1818H24V26.05H29.3818C29.15 27.3 28.4455 28.3591 27.3864 29.0682V31.5773H30.6182C32.5091 29.8364 33.6 27.2727 33.6 24.2273Z" fill="#4285F4"/>
<path fill-rule="evenodd" clip-rule="evenodd" d="M23.9998 34C26.6998 34 28.9635 33.1045 30.618 31.5772L27.3862 29.0681C26.4907 29.6681 25.3453 30.0227 23.9998 30.0227C21.3953 30.0227 19.1907 28.2636 18.4044 25.9H15.0635V28.4909C16.7089 31.7591 20.0907 34 23.9998 34Z" fill="#34A853"/>
<path fill-rule="evenodd" clip-rule="evenodd" d="M18.4045 25.9C18.2045 25.3 18.0909 24.6591 18.0909 24C18.0909 23.3409 18.2045 22.7 18.4045 22.1V19.5091H15.0636C14.3864 20.8591 14 22.3864 14 24C14 25.6136 14.3864 27.1409 15.0636 28.4909L18.4045 25.9Z" fill="#FBBC05"/>
<path fill-rule="evenodd" clip-rule="evenodd" d="M23.9998 17.9773C25.468 17.9773 26.7862 18.4818 27.8226 19.4727L30.6907 16.6045C28.9589 14.9909 26.6953 14 23.9998 14C20.0907 14 16.7089 16.2409 15.0635 19.5091L18.4044 22.1C19.1907 19.7364 21.3953 17.9773 23.9998 17.9773Z" fill="#EA4335"/>
</g>

</svg>
