<svg width="46" height="46" viewBox="0 0 46 46" fill="none" xmlns="http://www.w3.org/2000/svg">
<g filter="url(#filter0_i_1_1906)">
<rect width="46" height="46" rx="23" fill="#F2F2F2"/>
<path d="M21.235 17.1921C21.0067 17.0637 20.7488 16.9974 20.4869 16.9997C20.2251 17.002 19.9684 17.0728 19.7424 17.205C19.5163 17.3373 19.3289 17.5265 19.1987 17.7536C19.0684 17.9808 18.9999 18.2382 19 18.5001V27.5001C19.0001 27.7618 19.0687 28.019 19.199 28.2461C19.3293 28.4732 19.5168 28.6622 19.7428 28.7943C19.9688 28.9265 20.2254 28.9972 20.4872 28.9994C20.749 29.0016 21.0068 28.9353 21.235 28.8071L29.235 24.3071C29.4668 24.1765 29.6597 23.9867 29.794 23.757C29.9282 23.5273 29.999 23.2661 29.999 23.0001C29.999 22.734 29.9282 22.4728 29.794 22.2431C29.6597 22.0134 29.4668 21.8236 29.235 21.693L21.235 17.1931V17.1921Z" fill="#F2C94C"/>
</g>
<defs>
<filter id="filter0_i_1_1906" x="0" y="0" width="46" height="50" filterUnits="userSpaceOnUse" color-interpolation-filters="sRGB">
<feFlood flood-opacity="0" result="BackgroundImageFix"/>
<feBlend mode="normal" in="SourceGraphic" in2="BackgroundImageFix" result="shape"/>
<feColorMatrix in="SourceAlpha" type="matrix" values="0 0 0 0 0 0 0 0 0 0 0 0 0 0 0 0 0 0 127 0" result="hardAlpha"/>
<feOffset dy="4"/>
<feGaussianBlur stdDeviation="25"/>
<feComposite in2="hardAlpha" operator="arithmetic" k2="-1" k3="1"/>
<feColorMatrix type="matrix" values="0 0 0 0 0 0 0 0 0 0 0 0 0 0 0 0 0 0 0.1 0"/>
<feBlend mode="normal" in2="shape" result="effect1_innerShadow_1_1906"/>
</filter>
</defs>
</svg>
